<svg width="28" height="28" viewBox="0 0 28 28" fill="none" xmlns="http://www.w3.org/2000/svg">
<path fill-rule="evenodd" clip-rule="evenodd" d="M13.6798 4.23076C11.9108 4.23076 10.2143 4.93348 8.96344 6.18434C7.71258 7.4352 7.00985 9.13172 7.00985 10.9007V16.459C7.00985 17.2463 6.80106 18.0121 6.41413 18.6823H20.9455C20.5585 18.0121 20.3497 17.2463 20.3497 16.459V10.9007C20.3497 9.13172 19.647 7.4352 18.3962 6.18434C17.1453 4.93348 15.4488 4.23076 13.6798 4.23076ZM24.7964 18.6823C24.2067 18.6823 23.6412 18.4481 23.2242 18.0311C22.8073 17.6142 22.5731 17.0486 22.5731 16.459V10.9007C22.5731 8.54206 21.6361 6.28003 19.9683 4.61222C18.3005 2.94441 16.0384 2.00745 13.6798 2.00745C11.3212 2.00745 9.05912 2.94441 7.39131 4.61222C5.72351 6.28003 4.78654 8.54207 4.78654 10.9007V16.459C4.78654 17.0486 4.5523 17.6142 4.13535 18.0311C3.71839 18.4481 3.15289 18.6823 2.56323 18.6823C1.94927 18.6823 1.45157 19.18 1.45157 19.794C1.45157 20.4079 1.94927 20.9056 2.56323 20.9056H24.7964V18.6823ZM11.1988 23.279C11.7299 22.9709 12.4102 23.1517 12.7182 23.6828C12.8159 23.8512 12.9562 23.9911 13.125 24.0883C13.2937 24.1855 13.485 24.2367 13.6798 24.2367C13.8745 24.2367 14.0659 24.1855 14.2346 24.0883C14.4034 23.9911 14.5437 23.8512 14.6414 23.6828C14.9494 23.1517 15.6297 22.9709 16.1608 23.279C16.6918 23.5871 16.8726 24.2673 16.5645 24.7984C16.2714 25.3038 15.8506 25.7233 15.3443 26.0149C14.838 26.3065 14.264 26.46 13.6798 26.46C13.0955 26.46 12.5215 26.3065 12.0153 26.0149C11.509 25.7233 11.0882 25.3038 10.795 24.7984C10.487 24.2673 10.6678 23.5871 11.1988 23.279Z" fill="#2C2C2C"/>
</svg>
