<svg width="22" height="24" viewBox="0 0 22 24" fill="none" xmlns="http://www.w3.org/2000/svg">
<path d="M2.154 24C1.54022 24 1.02778 23.797 0.616667 23.3911C0.205556 22.9852 0 22.4793 0 21.8733V5.06342C0 4.45741 0.205556 3.95146 0.616667 3.54555C1.02778 3.13964 1.54022 2.93669 2.154 2.93669H4.51267V0H5.94867V2.93669H15.4873V0H16.8207V2.93669H19.1793C19.7931 2.93669 20.3056 3.13964 20.7167 3.54555C21.1278 3.95146 21.3333 4.45741 21.3333 5.06342V21.8733C21.3333 22.4793 21.1278 22.9852 20.7167 23.3911C20.3056 23.797 19.7931 24 19.1793 24H2.154ZM2.154 22.6835H19.1793C19.3847 22.6835 19.5728 22.5992 19.7437 22.4305C19.9146 22.2617 20 22.076 20 21.8733V10.3293H1.33333V21.8733C1.33333 22.076 1.41878 22.2617 1.58967 22.4305C1.76056 22.5992 1.94867 22.6835 2.154 22.6835ZM1.33333 9.01246H20V5.06342C20 4.86069 19.9146 4.67496 19.7437 4.50623C19.5728 4.33751 19.3847 4.25314 19.1793 4.25314H2.154C1.94867 4.25314 1.76056 4.33751 1.58967 4.50623C1.41878 4.67496 1.33333 4.86069 1.33333 5.06342V9.01246ZM10.6667 14.9872C10.3916 14.9872 10.1518 14.8864 9.94733 14.6848C9.74311 14.4831 9.641 14.2464 9.641 13.9745C9.641 13.7029 9.74311 13.4663 9.94733 13.2646C10.1518 13.063 10.3916 12.9622 10.6667 12.9622C10.9418 12.9622 11.1816 13.063 11.386 13.2646C11.5902 13.4663 11.6923 13.7029 11.6923 13.9745C11.6923 14.2464 11.5902 14.4831 11.386 14.6848C11.1816 14.8864 10.9418 14.9872 10.6667 14.9872ZM5.33333 14.9872C5.05822 14.9872 4.81845 14.8864 4.614 14.6848C4.40978 14.4831 4.30767 14.2464 4.30767 13.9745C4.30767 13.7029 4.40978 13.4663 4.614 13.2646C4.81845 13.063 5.05822 12.9622 5.33333 12.9622C5.60844 12.9622 5.84822 13.063 6.05267 13.2646C6.25689 13.4663 6.359 13.7029 6.359 13.9745C6.359 14.2464 6.25689 14.4831 6.05267 14.6848C5.84822 14.8864 5.60844 14.9872 5.33333 14.9872ZM16 14.9872C15.7249 14.9872 15.4851 14.8864 15.2807 14.6848C15.0764 14.4831 14.9743 14.2464 14.9743 13.9745C14.9743 13.7029 15.0764 13.4663 15.2807 13.2646C15.4851 13.063 15.7249 12.9622 16 12.9622C16.2751 12.9622 16.5149 13.063 16.7193 13.2646C16.9236 13.4663 17.0257 13.7029 17.0257 13.9745C17.0257 14.2464 16.9236 14.4831 16.7193 14.6848C16.5149 14.8864 16.2751 14.9872 16 14.9872ZM10.6667 20.0506C10.3916 20.0506 10.1518 19.9498 9.94733 19.7482C9.74311 19.5465 9.641 19.3098 9.641 19.0379C9.641 18.7663 9.74311 18.5296 9.94733 18.3277C10.1518 18.1261 10.3916 18.0253 10.6667 18.0253C10.9418 18.0253 11.1816 18.1261 11.386 18.3277C11.5902 18.5296 11.6923 18.7663 11.6923 19.0379C11.6923 19.3098 11.5902 19.5465 11.386 19.7482C11.1816 19.9498 10.9418 20.0506 10.6667 20.0506ZM5.33333 20.0506C5.05822 20.0506 4.81845 19.9498 4.614 19.7482C4.40978 19.5465 4.30767 19.3098 4.30767 19.0379C4.30767 18.7663 4.40978 18.5296 4.614 18.3277C4.81845 18.1261 5.05822 18.0253 5.33333 18.0253C5.60844 18.0253 5.84822 18.1261 6.05267 18.3277C6.25689 18.5296 6.359 18.7663 6.359 19.0379C6.359 19.3098 6.25689 19.5465 6.05267 19.7482C5.84822 19.9498 5.60844 20.0506 5.33333 20.0506ZM16 20.0506C15.7249 20.0506 15.4851 19.9498 15.2807 19.7482C15.0764 19.5465 14.9743 19.3098 14.9743 19.0379C14.9743 18.7663 15.0764 18.5296 15.2807 18.3277C15.4851 18.1261 15.7249 18.0253 16 18.0253C16.2751 18.0253 16.5149 18.1261 16.7193 18.3277C16.9236 18.5296 17.0257 18.7663 17.0257 19.0379C17.0257 19.3098 16.9236 19.5465 16.7193 19.7482C16.5149 19.9498 16.2751 20.0506 16 20.0506Z" fill="#343333"/>
</svg>
