<svg width="18" height="22" viewBox="0 0 18 22" fill="none" xmlns="http://www.w3.org/2000/svg">
<path d="M1.71837 0.43361C1.81435 0.328631 2.01086 0.191701 2.14797 0.127801L2.39932 0.00456432L12.4079 0L17.9835 5.56846L17.9972 13.0174C18.0064 17.9423 17.9926 20.5759 17.9607 20.7768C17.9378 20.9502 17.883 21.151 17.8464 21.2241C17.8098 21.2971 17.7002 21.4477 17.6088 21.5481C17.5128 21.6531 17.3117 21.7992 16.8867 22H2.42218L2.16168 21.8768C2.01543 21.8083 1.81435 21.6714 1.71837 21.5664C1.61783 21.466 1.49444 21.2925 1.44416 21.1784C1.35733 20.9959 1.34819 20.868 1.32534 19.0332H1.02828C0.830243 19.0332 0.674858 19.0043 0.562127 18.9465C0.466155 18.9008 0.32905 18.7913 0.255928 18.7091C0.187376 18.6224 0.095973 18.4809 0.063982 18.3942C0.00914028 18.2664 0 17.8556 0 14.2863L0.109683 14.0672C0.169095 13.9485 0.269638 13.8071 0.32905 13.7523C0.383892 13.6975 0.511856 13.6199 0.603259 13.5834C0.699232 13.5423 0.900318 13.5104 1.32534 13.5104L1.33905 7.27095L1.33907 7.25531C1.34819 1.08165 1.34827 1.0268 1.44416 0.821577C1.49444 0.707469 1.61783 0.534025 1.71837 0.43361Z" fill="black"/>
<path d="M12.5907 4.86566L12.577 2.88018L12.5679 0.890137L14.8027 3.12665C16.0366 4.35902 17.0329 5.37686 17.0192 5.39968C17.0101 5.41794 16.1646 5.43163 13.2763 5.43163L13.0478 5.31752C12.9152 5.25362 12.7735 5.13495 12.5907 4.86566Z" fill="#EF0A0A"/>
<path d="M12.5907 4.86566L12.577 2.88018L12.5679 0.890137L14.8027 3.12665C16.0366 4.35902 17.0329 5.37686 17.0192 5.39968C17.0101 5.41794 16.1646 5.43163 13.2763 5.43163L13.0478 5.31752C12.9152 5.25362 12.7735 5.13495 12.5907 4.86566Z" fill="#EF0A0A"/>
<path d="M2.60041 15.2221V14.6196L2.5 14L4.19996 14.0125L4.5 14.5L4.19996 14.7885C4.19996 15.2175 4.18625 15.5644 4.16797 15.5644C4.14969 15.5644 4.03199 15.5502 4 15.5C3.96801 15.4498 3.95317 15.3499 3.87091 15.3042C3.75209 15.2449 3.60127 15.2267 2.60041 15.2221Z" fill="#EF0A0A"/>
<path d="M2.60041 15.2221V14.6196L2.5 14L4.19996 14.0125L4.5 14.5L4.19996 14.7885C4.19996 15.2175 4.18625 15.5644 4.16797 15.5644C4.14969 15.5644 4.03199 15.5502 4 15.5C3.96801 15.4498 3.95317 15.3499 3.87091 15.3042C3.75209 15.2449 3.60127 15.2267 2.60041 15.2221Z" fill="#EF0A0A"/>
<path d="M4.53516 15.3042C4.43004 15.3088 5.4339 15.2403 5.43847 14.6287V14.0125L9.50133 14.0399L9.79838 14.3366L9.8121 16.2308C9.82124 17.8374 9.8121 18.1432 9.75268 18.2619C9.71612 18.3349 9.62472 18.4308 9.54703 18.4673C9.43277 18.5221 9.09915 18.5358 5.4339 18.5358L5 17H5.5C5.57769 16.9544 6.0006 16.92 6.05087 16.8196C6.11942 16.6827 6.14227 16.5457 6.14227 16.2308C6.14227 15.9113 6.12399 15.7789 6.05087 15.6374C6.0006 15.537 5.88634 15.4092 5.79951 15.3499C5.71268 15.2951 4.59 15.3042 4.53516 15.3042Z" fill="#EF0A0A"/>
<path d="M4.53516 15.3042C4.43004 15.3088 5.4339 15.2403 5.43847 14.6287V14.0125L9.50133 14.0399L9.79838 14.3366L9.8121 16.2308C9.82124 17.8374 9.8121 18.1432 9.75268 18.2619C9.71612 18.3349 9.62472 18.4308 9.54703 18.4673C9.43277 18.5221 9.09915 18.5358 5.4339 18.5358L5 17H5.5C5.57769 16.9544 6.0006 16.92 6.05087 16.8196C6.11942 16.6827 6.14227 16.5457 6.14227 16.2308C6.14227 15.9113 6.12399 15.7789 6.05087 15.6374C6.0006 15.537 5.88634 15.4092 5.79951 15.3499C5.71268 15.2951 4.59 15.3042 4.53516 15.3042Z" fill="#EF0A0A"/>
<path d="M3.79669 16.2308C3.87895 16.1897 4.04458 16.2993 4.07657 16.2491C4.10399 16.1989 4.14512 16.1578 4.16797 16.1578C4.18625 16.1578 4.20453 16.6918 4.20453 18.5312H2.60498V17.1847H2.99344L3.01629 16.5457L3.29398 16.3312C3.49049 16.3175 3.71443 16.2719 3.79669 16.2308Z" fill="#EF0A0A"/>
<path d="M3.79669 16.2308C3.87895 16.1897 4.04458 16.2993 4.07657 16.2491C4.10399 16.1989 4.14512 16.1578 4.16797 16.1578C4.18625 16.1578 4.20453 16.6918 4.20453 18.5312H2.60498V17.1847H2.99344L3.01629 16.5457L3.29398 16.3312C3.49049 16.3175 3.71443 16.2719 3.79669 16.2308Z" fill="#EF0A0A"/>
<path d="M0.621538 14.2042C0.66267 14.1448 0.740362 14.0809 0.795204 14.0581C0.845475 14.0353 1.2705 14.017 2.58213 14.0125L3 16L2.60938 18.5311H0.822625L0.548416 18.2573V16.2809C0.548416 14.5419 0.557556 14.2954 0.621538 14.2042Z" fill="#EF0A0A"/>
<path d="M3.79547 16C3.79547 15.8357 3.5 15.429 3.5 15L4.20453 14.0125H5.43847V15.1992L4.54729 15.222L4.52444 17.2075H5.43847V18.5311H4.20453L4 17.5C4 16.8473 3.79547 16.1643 3.79547 16Z" fill="#EF0A0A"/>
<path d="M2.10226 0.771322C2.1891 0.6846 2.34448 0.588749 2.44502 0.561364C2.54557 0.533978 2.84263 0.511156 3.58756 0.511156V13.5012L1.82805 13.5103V7.43979C1.82805 2.85265 1.84177 1.31448 1.8829 1.15016C1.91946 1.01323 1.99715 0.876301 2.10226 0.771322Z" fill="white"/>
<path d="M4.5 10L4.97231 5.13937L4.9586 0.506592H6.05544L6.0463 5.07091C6.03716 7.57672 6.75781 9.67174 6.73953 9.67174C6.71668 9.67174 5.79951 9.64892 5.59842 9.67174C5.39734 9.69456 4.69652 9.95892 4.5 10Z" fill="white"/>
<path d="M15.9726 21.4979L15.9772 13.7203L15.9726 5.94269L17.4534 5.93356L17.4351 20.9456L17.2934 21.119C17.2157 21.2149 17.0832 21.3381 16.9964 21.3883C16.8775 21.4568 16.7496 21.4796 15.9726 21.4979Z" fill="white"/>
<path d="M5.21484 11.9676C5.36109 11.9676 5.6167 12.0132 5.7401 11.9676C5.86806 11.9219 6.48172 11.5046 6.5 11.5C6.51828 11.4954 6.04173 12.2414 6.06001 13.5103H4.96317L4.67188 11.8763L5.21484 11.9676Z" fill="white"/>
<path d="M1.82805 19.8684C1.82348 19.4439 1.83719 19.0834 1.86005 19.0651C1.87833 19.0514 2.27136 19.0423 3.54643 19.0605L3.59213 21.4888L3.15797 21.4979C2.92032 21.5024 2.62326 21.4796 2.4953 21.4477C2.34448 21.4112 2.21195 21.3381 2.10683 21.2286C2.00172 21.1282 1.92403 20.9912 1.89204 20.8497C1.86005 20.7311 1.83262 20.2883 1.82805 19.8684Z" fill="white"/>
<path d="M4.97688 20.3249C4.98602 19.6767 4.99973 19.1244 5.01344 19.0925C5.03172 19.0468 5.16426 19.0331 6.06001 19.0468V21.4979H4.96317L4.97688 20.3249Z" fill="white"/>
<path d="M8.69698 3.56479C8.77924 3.48263 8.92549 3.37309 9.02603 3.32744C9.12657 3.2818 9.31395 3.24072 9.43734 3.24072C9.60644 3.24072 9.72526 3.27724 9.89436 3.37309C10.0223 3.44155 10.1777 3.58305 10.2463 3.6789C10.3148 3.77931 10.4016 3.9345 10.4428 4.02578C10.4793 4.12164 10.5296 4.32703 10.5525 4.48222C10.5753 4.67848 10.5707 4.86562 10.5296 5.06645C10.5022 5.23076 10.3971 5.60047 10.3057 5.88803C10.2097 6.17558 10.0497 6.60919 9.76182 7.28014L9.91721 7.71375C9.99947 7.9511 10.2371 8.57641 10.8084 10.0461L11.2883 10.2287C11.5533 10.3291 11.9418 10.5025 12.1566 10.6212C12.3714 10.7353 12.6456 10.9042 12.769 10.9955C12.8969 11.0868 13.0706 11.2511 13.162 11.3652C13.2534 11.4793 13.3722 11.6938 13.4316 11.8445C13.5139 12.0544 13.5322 12.1868 13.5185 12.4241C13.5093 12.6706 13.4819 12.7619 13.3677 12.9262C13.2854 13.0403 13.1437 13.1635 13.0249 13.2274C12.8787 13.3005 12.7416 13.3324 12.545 13.3324C12.3942 13.3324 12.1703 13.2959 12.0423 13.2503C11.9189 13.2092 11.7178 13.0996 11.599 13.0084C11.4802 12.9216 11.3294 12.7664 11.2563 12.666C11.1877 12.5656 11.0186 12.237 10.8769 11.9357C10.7353 11.6345 10.5479 11.2191 10.4611 11.0092C10.3194 10.6623 10.292 10.6258 10.1457 10.5893C10.0589 10.5664 9.78924 10.5162 9.5516 10.4752C9.31395 10.4386 8.8158 10.3839 7.77838 10.2926L7.21168 10.8403C6.90092 11.1416 6.51245 11.4884 6.3525 11.6117C6.18797 11.7349 5.96404 11.8764 5.84978 11.9312C5.68526 12.0088 5.55729 12.027 5.18711 12.027C4.76666 12.027 4.71182 12.0179 4.48331 11.8901C4.33706 11.8079 4.18625 11.6801 4.1177 11.5752C4.03087 11.4428 3.9943 11.3196 3.98516 11.1187C3.97145 10.927 3.9943 10.7764 4.04915 10.6349C4.09485 10.5208 4.23195 10.3337 4.35078 10.2104C4.47417 10.0918 4.69811 9.93657 4.85349 9.85898C5.05458 9.76313 5.2648 9.71292 5.55272 9.67641C5.77666 9.65359 6.29309 9.63076 7.42648 9.63533L7.7144 9.27931C7.86979 9.08305 8.12114 8.74985 8.26739 8.53533C8.41363 8.32081 8.64214 7.94197 9.01689 7.2345L8.68784 6.25317C8.5096 5.71458 8.34051 5.16686 8.31309 5.04363C8.2811 4.91583 8.26739 4.69217 8.2811 4.54155C8.29481 4.38637 8.35422 4.14902 8.42734 3.99383C8.49589 3.84321 8.61472 3.65151 8.69698 3.56479Z" fill="#EF0A0A"/>
<path d="M2.59127 17.4129C2.5867 18.0382 2.58213 17.5362 2.58213 16.2947C2.58213 15.0532 2.5867 14.5374 2.59127 15.1536C2.60041 15.7698 2.60041 16.783 2.59127 17.4129Z" fill="#EF0A0A"/>
<path d="M3.56471 7.0061C3.56471 3.50527 3.57842 0.606932 3.59213 0.570418C3.61498 0.515646 3.7338 0.501953 4.27765 0.501953C4.8215 0.501953 4.94032 0.515646 4.9586 0.570418C4.97231 0.606932 4.98145 2.69739 4.98602 9.79033L4.78951 9.88162C4.68439 9.93183 4.49702 10.0688 4.37819 10.192C4.25937 10.3107 4.1177 10.4932 4.06742 10.5982C4.01258 10.7215 3.97602 10.8903 3.97602 11.0455C3.97602 11.2144 4.01258 11.365 4.08113 11.502C4.14512 11.6343 4.2548 11.7484 4.38733 11.8351C4.50159 11.9036 4.67982 11.9812 4.98145 12.0497V12.7115C4.98145 13.0766 5.01371 13.4635 5 13.5C4.98172 13.5548 4.8215 13.5103 4.27308 13.5103C3.5 13.5 3.42453 13.4966 3.40625 13.4418C3.39254 13.4053 3.56471 10.5069 3.56471 7.0061Z" fill="white"/>
<path d="M6.03259 5.13473C6.03259 2.66087 6.0463 0.606932 6.06001 0.570418C6.08286 0.511082 6.45761 0.501953 12.0195 0.501953L12.0332 2.5559C12.0378 3.68785 12.0469 4.66461 12.0515 4.73764C12.056 4.8061 12.0697 4.89282 12.0789 4.92934C12.088 4.96585 12.1383 5.07996 12.1886 5.18038C12.2434 5.28079 12.3668 5.43598 12.4628 5.52726C12.5587 5.61855 12.705 5.73722 12.7873 5.78743C12.8649 5.8422 12.9335 5.87872 12.9335 5.86502C12.9335 5.85133 12.9609 5.8559 12.9929 5.87415C13.0203 5.89241 13.0797 5.91523 13.1163 5.9198C13.1529 5.92892 13.8064 5.93349 14.5696 5.93349C15.7578 5.93349 15.9544 5.94262 15.9726 6.00195C15.9864 6.03847 15.9955 9.51191 15.9955 13.7156C15.9955 17.9194 15.9864 21.3928 15.9726 21.4293C15.9544 21.4887 15.3602 21.4978 11.014 21.4978C6.66783 21.4978 6.07372 21.4887 6.05544 21.4293C6.04173 21.3928 6.03259 20.8679 6.03259 20.2654C6.03259 19.663 6.04173 19.1381 6.05544 19.1015C6.07372 19.0422 6.31136 19.0331 9.57445 19.0331L9.81666 18.8961C9.94463 18.8186 10.0909 18.6953 10.1366 18.6223C10.1777 18.5447 10.2234 18.4854 10.2371 18.4854C10.2508 18.4854 10.2691 18.458 10.2782 18.4306C10.2874 18.3986 10.3057 17.4766 10.3239 16.3858C10.3514 14.5372 10.3468 14.3866 10.2691 14.1949C10.2234 14.0808 10.1183 13.921 10.0406 13.8389C9.95834 13.7522 9.83037 13.6517 9.75725 13.6107C9.68413 13.5696 9.58816 13.5331 9.55159 13.5239C9.51503 13.5148 8.71526 13.5103 7.78295 13.5103C6.30679 13.5103 6.07372 13.5011 6.05544 13.4418C6.04173 13.4053 6.03259 13.031 6.03259 11.8443L6.33878 11.6161C6.50788 11.4928 6.90091 11.1414 7.77838 10.2924L8.45019 10.3517C8.8158 10.3837 9.31395 10.4385 9.55159 10.475C9.78924 10.5161 10.0589 10.5663 10.1457 10.5891C10.292 10.6256 10.3194 10.6621 10.4611 11.009C10.5479 11.219 10.7353 11.6343 10.8769 11.9356C11.0186 12.2368 11.1877 12.5654 11.2563 12.6659C11.3294 12.7663 11.4802 12.9215 11.599 13.0082C11.7178 13.0995 11.9189 13.209 12.0423 13.2501C12.1703 13.2957 12.3942 13.3322 12.545 13.3322C12.7416 13.3322 12.8787 13.3003 13.0249 13.2273C13.1437 13.1634 13.2854 13.0401 13.3677 12.926C13.4819 12.7617 13.5093 12.6704 13.5185 12.4239C13.5322 12.1866 13.5139 12.0542 13.4316 11.8443C13.3722 11.6937 13.2534 11.4791 13.162 11.365C13.0706 11.2509 12.8969 11.0866 12.769 10.9953C12.6456 10.904 12.3714 10.7351 12.1566 10.621C11.9418 10.5024 11.5533 10.3289 10.8084 10.0459L10.4382 9.09656C10.2371 8.57623 9.99947 7.95092 9.76182 7.27996L9.9492 6.84635C10.0497 6.60901 10.2097 6.1754 10.3057 5.88785C10.3971 5.60029 10.5022 5.23058 10.5296 5.06627C10.5707 4.86544 10.5753 4.6783 10.5525 4.4866C10.5296 4.32685 10.4793 4.12146 10.4428 4.03017C10.4016 3.93432 10.3148 3.77913 10.2463 3.67872C10.1777 3.58287 10.0223 3.44137 9.89436 3.37291C9.72526 3.27706 9.60644 3.24054 9.43734 3.24054C9.31395 3.24054 9.12657 3.28162 9.02603 3.32726C8.92549 3.37291 8.77924 3.48245 8.69698 3.56461C8.61472 3.65133 8.49589 3.84303 8.42734 3.99365C8.35422 4.14884 8.29481 4.38619 8.2811 4.54137C8.26738 4.69199 8.2811 4.92021 8.31309 5.04345C8.34051 5.16668 8.5096 5.7144 9.01689 7.23432L8.77467 7.69075C8.64214 7.94179 8.41363 8.32063 8.26739 8.53515C8.12114 8.74967 7.86978 9.08287 7.42648 9.63515L6.03259 9.63058V5.13473Z" fill="white"/>
<path d="M2.61869 16.2488C2.61412 15.7376 2.62326 15.2858 2.63697 15.2538C2.65525 15.199 2.76493 15.1899 3.19453 15.2082C3.61955 15.2219 3.75665 15.2447 3.88462 15.3177C3.97145 15.3679 4.08113 15.4775 4.12684 15.5642C4.17711 15.6646 4.20453 15.7924 4.19539 15.9065C4.18625 16.0069 4.14055 16.1439 4.09942 16.2169C4.05828 16.2854 3.95317 16.3721 3.87548 16.4132C3.79322 16.4542 3.56471 16.4999 3.02086 16.5455L2.99344 17.1845H2.62783L2.61869 16.2488Z" fill="white"/>
<path d="M4.5153 16.2351C4.51073 15.6874 4.52901 15.2447 4.55186 15.2264C4.57471 15.2036 4.8215 15.199 5.09571 15.2082C5.44304 15.2219 5.64412 15.2538 5.74924 15.304C5.82693 15.3451 5.93661 15.4364 5.98688 15.5094C6.03716 15.5779 6.10114 15.7468 6.12856 15.8837C6.15598 16.0206 6.16969 16.258 6.15141 16.4086C6.13313 16.5592 6.08286 16.7555 6.03716 16.8422C5.99145 16.9289 5.8772 17.0476 5.77666 17.1024C5.62127 17.1937 5.53444 17.2073 4.52444 17.2073L4.5153 16.2351Z" fill="white"/>
<path d="M3.56471 20.2654C3.56471 19.663 3.39254 19.1381 3.40625 19.1015C3.4291 19.0468 3.7338 19.0331 4.27765 19.0331C4.8215 19.0331 5.095 19.0468 5.11328 19.1015C5.12699 19.1381 4.98145 19.663 4.98145 20.2654C4.98145 20.8679 4.97231 21.3928 4.9586 21.4293C4.94032 21.4841 4.8215 21.4978 4.27308 21.4978C3.72466 21.4978 3.60584 21.4841 3.58756 21.4293C3.57385 21.3928 3.56471 20.8679 3.56471 20.2654Z" fill="white"/>
<path d="M3.0163 16.1576V15.8609V15.5642H3.27679C3.42304 15.5642 3.59213 15.5916 3.65612 15.6235C3.74752 15.6692 3.77037 15.7148 3.77037 15.8609C3.77037 16.0069 3.74752 16.0526 3.65612 16.0982C3.59213 16.1302 3.42304 16.1576 3.0163 16.1576Z" fill="#EF0A0A"/>
<path d="M5.50702 16.8194C5.44761 16.8377 5.43847 16.7555 5.43847 16.226C5.43847 15.8472 5.45675 15.6099 5.48417 15.6099C5.51159 15.6099 5.58015 15.6601 5.64413 15.724C5.74467 15.8244 5.75838 15.8746 5.75838 16.1804C5.75838 16.3949 5.73096 16.5729 5.68983 16.6596C5.65327 16.7327 5.61214 16.7966 5.59843 16.7966C5.58472 16.7966 5.54359 16.8057 5.50702 16.8194Z" fill="#EF0A0A"/>
<path d="M4.89005 16.8424L4.89462 16.2034V15.5598L5.5 15.6V16.5L5.43777 16.8424H4.89005Z" fill="#EF0A0A"/>
<path d="M5.15055 10.4659C5.24652 10.4248 5.43847 10.3792 5.57557 10.3609C5.71268 10.3427 5.87263 10.3244 5.92747 10.3199C6.02802 10.3153 6.03259 10.3336 6.03259 10.6576C6.03259 10.9908 6.02802 11.0045 5.88634 11.1095C5.80408 11.1734 5.65783 11.2555 5.56643 11.2921C5.47046 11.3331 5.30136 11.3651 4.98145 11.3651V10.5435L5.15055 10.4659Z" fill="white"/>
<path d="M9.00775 4.40911C9.04431 4.28131 9.12657 4.12156 9.19512 4.05309C9.25911 3.98463 9.36422 3.92529 9.42363 3.92529C9.47847 3.92529 9.57445 3.97094 9.62929 4.02571C9.68413 4.08504 9.76182 4.20828 9.79838 4.30413C9.83951 4.39542 9.8715 4.58255 9.8715 4.71492C9.8715 4.85185 9.81666 5.13484 9.73897 5.38587C9.66585 5.62322 9.56988 5.91533 9.53331 6.03857C9.49218 6.15724 9.44648 6.25309 9.4282 6.25309C9.40535 6.25309 9.30481 5.9838 9.19512 5.6506C9.08544 5.31741 8.9849 4.95226 8.97119 4.83816C8.95291 4.71948 8.97119 4.53691 9.00775 4.40911Z" fill="white"/>
<path d="M8.95291 8.75434C9.13114 8.48048 9.27739 8.24313 9.27739 8.21575C9.27739 8.18836 9.30024 8.17011 9.33223 8.17011C9.35965 8.17011 9.5196 8.53982 9.68413 8.99168C9.84865 9.44355 9.97662 9.82239 9.96291 9.83152C9.9492 9.84064 9.77553 9.82239 9.57445 9.79044C9.37336 9.75849 9.03517 9.71741 8.82037 9.69915C8.60558 9.68546 8.40449 9.66264 8.37707 9.64894C8.33594 9.63525 8.36793 9.56679 8.47304 9.43442C8.5553 9.32944 8.77467 9.02363 8.95291 8.75434Z" fill="white"/>
<path d="M6.06915 10.9543C6.0463 10.9543 6.03259 10.8083 6.03259 10.6348V10.3153H6.78666L6.4439 10.6348C6.25652 10.8083 6.08743 10.9498 6.06915 10.9543Z" fill="white"/>
<path d="M4.67525 11.0548C4.66611 10.9452 4.6981 10.8676 4.81236 10.7398L4.9586 10.5755L4.97231 10.9361C4.97688 11.1323 4.97231 11.3058 4.95403 11.3195C4.94032 11.3332 4.87634 11.3104 4.80779 11.2738C4.72095 11.2236 4.67982 11.1597 4.67525 11.0548Z" fill="white"/>
<path d="M11.4756 11.6025C11.3248 11.2693 11.2014 10.9863 11.2014 10.9726C11.2014 10.9635 11.2197 10.9498 11.2471 10.9498C11.27 10.9498 11.4893 11.0548 11.7361 11.178C11.9829 11.3012 12.2754 11.4701 12.3897 11.5568C12.4993 11.6435 12.6502 11.8124 12.7187 11.9357C12.7873 12.0635 12.8421 12.2323 12.8421 12.3328C12.8421 12.4286 12.8147 12.5336 12.7735 12.5701C12.7324 12.6112 12.6182 12.6386 12.5222 12.6386C12.4216 12.6386 12.2663 12.6021 12.1703 12.5518C12.0743 12.5062 11.9418 12.4058 11.8732 12.3373C11.8047 12.2643 11.6264 11.9357 11.4756 11.6025Z" fill="white"/>
<path d="M6.53073 16.2307C6.52616 15.6967 6.53987 15.2402 6.56272 15.2265C6.581 15.2083 6.89177 15.1992 7.88806 15.2174L7.91091 15.5597H6.90548V16.1074L7.84236 16.1303V16.4498L6.92833 16.4954L6.90548 17.2029H6.53987L6.53073 16.2307Z" fill="white"/>
</svg>
